<?xml version="1.0" encoding="UTF-8" standalone="no"?>
<!-- Created with Inkscape (http://www.inkscape.org/) -->

<svg
   width="16"
   height="16"
   viewBox="0 0 4.2333332 4.2333333"
   version="1.1"
   id="svg5"
   xml:space="preserve"
   inkscape:version="1.2.1 (9c6d41e410, 2022-07-14)"
   sodipodi:docname="icon_wh.svg"
   xmlns:inkscape="http://www.inkscape.org/namespaces/inkscape"
   xmlns:sodipodi="http://sodipodi.sourceforge.net/DTD/sodipodi-0.dtd"
   xmlns="http://www.w3.org/2000/svg"
   xmlns:svg="http://www.w3.org/2000/svg"><sodipodi:namedview
     id="namedview7"
     pagecolor="#505050"
     bordercolor="#eeeeee"
     borderopacity="1"
     inkscape:showpageshadow="0"
     inkscape:pageopacity="0"
     inkscape:pagecheckerboard="0"
     inkscape:deskcolor="#505050"
     inkscape:document-units="mm"
     showgrid="false"
     inkscape:zoom="41.403919"
     inkscape:cx="12.873178"
     inkscape:cy="12.184837"
     inkscape:window-width="952"
     inkscape:window-height="2042"
     inkscape:window-x="2880"
     inkscape:window-y="54"
     inkscape:window-maximized="1"
     inkscape:current-layer="layer1" /><defs
     id="defs2" /><g
     inkscape:label="Layer 1"
     inkscape:groupmode="layer"
     id="layer1"><path
       style="fill:#ffffff;stroke-width:0.00132192"
       d="M 1.634822,3.8378199 V 3.4295714 L 1.7573245,3.552633 1.8798269,3.6756921 2.8917335,2.6591368 3.9036399,1.6425794 4.0656854,1.805371 4.2277321,1.9681612 3.2168141,2.9837257 C 2.6608094,3.5422872 2.2058959,4.0001842 2.2058959,4.0012749 c -1.2e-6,0.00109 0.054381,0.056623 0.1208512,0.123397 L 2.4475995,4.2460863 2.0412094,4.2460707 1.6348217,4.2460552 V 3.8378115 Z M 0.82107584,3.4264759 c -8.754e-4,-2.96e-4 -0.001306,-0.1375013 -0.001306,-0.4080804 V 2.6107569 L 0.94182259,2.7333727 1.0638762,2.8559872 2.0757863,1.8394273 3.087695,0.82286638 3.2498273,0.98574866 3.4119584,1.1486285 2.4010972,2.1641428 C 1.8451236,2.7226755 1.390001,3.1803625 1.389716,3.1812253 c -2.946e-4,8.64e-4 0.054001,0.056348 0.1206477,0.1232981 0.06664,0.066946 0.1208729,0.1217805 0.1205109,0.1218409 -0.00214,3.7e-4 -0.80870833,4.44e-4 -0.80978686,7.4e-5 z M 0.00392887,2.6062353 c -2.934e-4,-2.948e-4 -5.88e-4,-0.1839468 -5.88e-4,-0.4080862 V 1.7906201 L 0.12555236,1.913394 0.24776383,2.0361665 1.2585311,1.0207547 C 1.8144527,0.46227826 2.2699316,0.00494934 2.2707073,0.00446723 c 7.935e-4,-5.1672e-4 0.072472,0.07050186 0.163313,0.16176884 L 2.5959245,0.32887963 1.5845097,1.3449394 C 1.0282318,1.903774 0.57309511,2.3614478 0.57309511,2.3619943 c 0,5.167e-4 0.0546063,0.055847 0.1213385,0.1228934 L 0.81577211,2.606789 H 0.41011355 c -0.2231115,0 -0.40590908,-2.219e-4 -0.40621556,-5.907e-4 z"
       id="path3338"
       inkscape:connector-curvature="0"
       sodipodi:nodetypes="cccccccccccccccccscccccccsccccccscccsccccsccscc" /></g></svg>
